<svg xmlns="http://www.w3.org/2000/svg" width="63" height="52.388" viewBox="0 0 63 52.388">
  <path id="Icon_metro-injection" data-name="Icon metro-injection" d="M54.462,17.013a1.667,1.667,0,0,1,0,2.624L52.917,20.95l1.544,1.313a3.338,3.338,0,0,1,0,5.251L31.341,47.2a4.911,4.911,0,0,1-6.166,0l-1.542-1.313-6.164,5.253,3.082,2.624a1.667,1.667,0,0,1,0,2.624,2.459,2.459,0,0,1-3.082,0L5.136,45.883a1.669,1.669,0,0,1,0-2.624,2.459,2.459,0,0,1,3.082,0L11.3,45.883l6.166-5.249-1.542-1.313a3.333,3.333,0,0,1,0-5.249L39.047,14.386a4.907,4.907,0,0,1,6.164,0L46.753,15.7,48.3,14.386a2.454,2.454,0,0,1,3.082,0l.771.657,12.333-10.5V7.166L53.691,16.354l.771.659ZM43.671,15.7a2.454,2.454,0,0,0-3.082,0l-4.624,3.938,3.082,2.624L37.5,23.575,34.423,20.95,29.8,24.888l3.082,2.626-1.542,1.313L28.254,26.2l-1.542,1.313,6.166,5.249-1.542,1.313L25.17,28.827l-4.62,3.934,6.164,5.249-1.542,1.313-6.164-5.249-1.542,1.313a1.667,1.667,0,0,0,0,2.624l9.248,7.875a2.452,2.452,0,0,0,3.084,0L52.917,26.2a1.664,1.664,0,0,0,0-2.624Zm-6.164,2.624,1.542-1.313,6.164,5.249-1.542,1.313Zm0,10.5-6.164-5.251,1.542-1.313,6.164,5.251ZM22.092,31.45l1.542-1.313,3.082,2.624-1.542,1.313ZM67.5,17.356a3,3,0,0,1-5.918,0c0-1.394,2.96-5.2,2.96-5.2S67.5,15.964,67.5,17.356Z" transform="translate(-4.498 -4.542)" fill="rgba(29,213,108,0.83)"/>
</svg>
