<svg xmlns="http://www.w3.org/2000/svg" width="63.366" height="47.999" viewBox="0 0 63.366 47.999">
  <path id="Icon_map-clothing-store" data-name="Icon map-clothing-store" d="M65.129,14.6a1.516,1.516,0,0,1-.268,1.214L57.251,27.134a1.692,1.692,0,0,1-1.371.678,3.937,3.937,0,0,1-.69-.071l-6.1-1.5V53.068a1.357,1.357,0,0,1-1.412,1.412H18.033a1.357,1.357,0,0,1-1.412-1.412V26.244l-5.478,1.511a1.291,1.291,0,0,1-1.539-.607L2.052,15.854a1.423,1.423,0,0,1-.2-1.186,1.377,1.377,0,0,1,.776-.9l15.4-7.285h7.059A1.349,1.349,0,0,1,26.5,7.892c0,2.908,4.08,4.969,6.988,4.969s7.129-2.047,7.129-4.969A1.357,1.357,0,0,1,42.033,6.48h7.059l15.247,7.143a1.519,1.519,0,0,1,.791.974Z" transform="translate(-1.802 -6.48)" fill="rgba(29,213,108,0.83)"/>
</svg>
