<svg xmlns="http://www.w3.org/2000/svg" width="35.773" height="57.194" viewBox="0 0 35.773 57.194">
  <path id="Icon_open-dollar" data-name="Icon open-dollar" d="M14.307,0V7.14H8.952A9.022,9.022,0,0,0,.026,16.066v3.57A10.256,10.256,0,0,0,7.809,29.7l18.279,4.713a4.372,4.372,0,0,1,2.428,3.142v3.57a1.768,1.768,0,0,1-1.785,1.785H8.88A4,4,0,0,1,7.1,42.485V35.773H-.045v7.14A6.709,6.709,0,0,0,3.1,48.483,10.082,10.082,0,0,0,8.88,50.054h5.355v7.14h7.14v-7.14h5.355a8.929,8.929,0,0,0,8.925-8.925v-3.57A10.256,10.256,0,0,0,27.874,27.49L9.594,22.778a4.372,4.372,0,0,1-2.428-3.142v-3.57a1.768,1.768,0,0,1,1.785-1.785H26.8a4.3,4.3,0,0,1,1.785.428v6.712h7.14v-7.14a6.709,6.709,0,0,0-3.142-5.569A10.082,10.082,0,0,0,26.8,7.14H21.447V0h-7.14Z" transform="translate(0.045 0)" fill="rgba(29,213,108,0.83)"/>
</svg>
