<svg xmlns="http://www.w3.org/2000/svg" width="63.366" height="52.547" viewBox="0 0 63.366 52.547">
  <path id="Icon_map-food" data-name="Icon map-food" d="M63.946,16.85,58.752,55.372H41.206L36.032,16.658h21.42L61.686,2.825l2.4.684L60.024,16.821l3.922.029ZM33.552,39.137s.656-5-8.442-5H10.62c-9.085,0-8.442,5-8.442,5H33.552ZM2.177,50.376s-.643,5,8.442,5H25.111c9.1,0,8.442-5,8.442-5H2.177Zm30.013-2.5a3.156,3.156,0,0,0,0-6.244H3.413a3.156,3.156,0,0,0,0,6.244H32.191Z" transform="translate(-0.72 -2.825)" fill="rgba(29,213,108,0.83)"/>
</svg>
