<svg id="washing-machine-svgrepo-com" xmlns="http://www.w3.org/2000/svg" width="49.609" height="65.344" viewBox="0 0 49.609 65.344">
  <path id="Path_1016" data-name="Path 1016" d="M102.513,0H55.09A1.093,1.093,0,0,0,54,1.093V64.251a1.093,1.093,0,0,0,1.093,1.093h47.424a1.093,1.093,0,0,0,1.093-1.093V1.093A1.093,1.093,0,0,0,102.513,0Zm-1.093,12.165H56.183V10.781H71.117a2.843,2.843,0,0,0,2.84-2.84V2.186H101.42v9.98ZM56.183,2.186H72.5V7.941a1.385,1.385,0,0,1-1.383,1.383H56.183Zm0,60.973V13.623h45.238V63.158H56.183Z" transform="translate(-53.997)" fill="rgba(29,213,108,0.83)"/>
  <path id="Path_1017" data-name="Path 1017" d="M297.189,364.848h-8.753a1.875,1.875,0,0,0-1.873,1.873v5.161a1.875,1.875,0,0,0,1.873,1.873h8.753a1.875,1.875,0,0,0,1.873-1.873v-5.161A1.875,1.875,0,0,0,297.189,364.848Zm.416,7.034a.416.416,0,0,1-.416.416h-8.752a.416.416,0,0,1-.416-.416v-5.161a.416.416,0,0,1,.416-.416h8.752a.416.416,0,0,1,.416.416Z" transform="translate(-252.679 -311.689)" fill="rgba(29,213,108,0.83)"/>
  <path id="Path_1018" data-name="Path 1018" d="M139.514,135.566a17.421,17.421,0,1,0-17.421,17.421A17.441,17.441,0,0,0,139.514,135.566ZM122.092,151.53a15.964,15.964,0,1,1,15.964-15.964A15.982,15.982,0,0,1,122.092,151.53Z" transform="translate(-97.288 -100.931)" fill="rgba(29,213,108,0.83)"/>
  <path id="Path_1019" data-name="Path 1019" d="M165.1,162.229a11.7,11.7,0,1,0,0,13.794.728.728,0,0,0-.027-.894,9.43,9.43,0,0,1,0-12.006A.729.729,0,0,0,165.1,162.229Zm-3,10.575a7.424,7.424,0,1,1,0-7.356,10.84,10.84,0,0,0,0,7.356Zm.711-8.933a8.88,8.88,0,1,0,0,10.509,10.84,10.84,0,0,0,.776,1.215,10.241,10.241,0,1,1,0-12.939A10.855,10.855,0,0,0,162.812,163.872Z" transform="translate(-130.847 -134.491)" fill="rgba(29,213,108,0.83)"/>
  <path id="Path_1020" data-name="Path 1020" d="M312.095,32.357a3.679,3.679,0,1,0-3.679-3.679A3.683,3.683,0,0,0,312.095,32.357Zm0-5.9a2.222,2.222,0,1,1-2.222,2.222A2.224,2.224,0,0,1,312.095,26.456Z" transform="translate(-271.347 -21.357)" fill="rgba(29,213,108,0.83)"/>
  <path id="Path_1021" data-name="Path 1021" d="M103,27.609H96.224a.729.729,0,0,0-.729.729v.536a2.766,2.766,0,0,0,2.763,2.763h2.706a2.766,2.766,0,0,0,2.763-2.763v-.536A.728.728,0,0,0,103,27.609Zm-2.034,2.57H98.258a1.308,1.308,0,0,1-1.292-1.113h5.289A1.308,1.308,0,0,1,100.964,30.179Z" transform="translate(-89.449 -23.586)" fill="rgba(29,213,108,0.83)"/>
  <path id="Path_1022" data-name="Path 1022" d="M202.575,31.205h4.517a.729.729,0,0,0,0-1.457h-4.517a.729.729,0,1,0,0,1.457Z" transform="translate(-180.304 -25.414)" fill="rgba(29,213,108,0.83)"/>
  <path id="Path_1023" data-name="Path 1023" d="M256.575,31.205h4.517a.729.729,0,1,0,0-1.457h-4.517a.729.729,0,1,0,0,1.457Z" transform="translate(-226.436 -25.414)" fill="rgba(29,213,108,0.83)"/>
  <path id="Path_1024" data-name="Path 1024" d="M202.575,46.705h4.517a.729.729,0,0,0,0-1.457h-4.517a.729.729,0,1,0,0,1.457Z" transform="translate(-180.304 -38.655)" fill="rgba(29,213,108,0.83)"/>
  <path id="Path_1025" data-name="Path 1025" d="M256.575,46.705h4.517a.729.729,0,1,0,0-1.457h-4.517a.729.729,0,1,0,0,1.457Z" transform="translate(-226.436 -38.655)" fill="rgba(29,213,108,0.83)"/>
  <path id="Path_1026" data-name="Path 1026" d="M207.091,60.748h-4.517a.729.729,0,1,0,0,1.457h4.517a.729.729,0,0,0,0-1.457Z" transform="translate(-180.304 -51.897)" fill="rgba(29,213,108,0.83)"/>
  <path id="Path_1027" data-name="Path 1027" d="M256.575,62.205h4.517a.729.729,0,1,0,0-1.457h-4.517a.729.729,0,1,0,0,1.457Z" transform="translate(-226.436 -51.897)" fill="rgba(29,213,108,0.83)"/>
</svg>
